<svg width="50" height="50" viewBox="0 0 50 50" fill="none" xmlns="http://www.w3.org/2000/svg">
<path d="M45.3125 6.49609C45.3002 5.21126 44.7819 3.98306 43.8701 3.0778C42.9582 2.17254 41.7263 1.66318 40.4414 1.66016L9.53516 1.5625C8.25158 1.56275 7.02049 2.07196 6.11177 2.97849C5.20305 3.88501 4.69086 5.11487 4.6875 6.39844V38.2812C4.6875 40.9473 6.86328 42.9688 9.53516 42.9688H35.9375L34.668 38.6719L45.3125 48.4375V6.49609ZM31.7041 32.208C31.7041 32.208 30.8525 31.1934 30.1416 30.3213C33.2412 29.4482 34.4238 27.5391 34.4238 27.5391C33.5725 28.1038 32.6602 28.5706 31.7041 28.9307C30.6002 29.389 29.4509 29.7291 28.2754 29.9453C26.2499 30.3173 24.1729 30.3094 22.1504 29.9219C20.9607 29.7009 19.7963 29.3607 18.6748 28.9062C18.0815 28.679 17.5046 28.4111 16.9482 28.1045C16.877 28.0576 16.8066 28.0342 16.7354 27.9863C16.6875 27.9629 16.6641 27.9395 16.6377 27.9395C16.2119 27.7031 15.9756 27.5381 15.9756 27.5381C15.9756 27.5381 17.1104 29.4023 20.1143 30.2979C19.4043 31.1943 18.5293 32.2324 18.5293 32.2324C13.3037 32.0674 11.3174 28.6709 11.3174 28.6709C11.3174 21.1455 14.7227 15.0361 14.7227 15.0361C18.1279 12.5117 21.3437 12.583 21.3437 12.583L21.5801 12.8662C17.3232 14.0693 15.3848 15.9326 15.3848 15.9326C15.3848 15.9326 15.9043 15.6494 16.7793 15.2715C19.3096 14.1631 21.3203 13.8799 22.1504 13.7861C22.2829 13.7586 22.4175 13.7426 22.5527 13.7383C24.1373 13.5327 25.7408 13.5169 27.3291 13.6914C29.823 13.9779 32.2391 14.7386 34.4473 15.9326C34.4473 15.9326 32.5791 14.1602 28.5586 12.959L28.8896 12.582C28.8896 12.582 32.1289 12.5107 35.5117 15.0391C35.5117 15.0391 38.917 21.1484 38.917 28.6738C38.917 28.6465 36.9297 32.043 31.7041 32.208Z" fill="#F1CD4B"/>
<path d="M20.708 21.2891C19.3604 21.2891 18.2959 22.4453 18.2959 23.8838C18.2959 25.3223 19.3838 26.4785 20.708 26.4785C22.0557 26.4785 23.1201 25.3232 23.1201 23.8838C23.1445 22.4424 22.0557 21.2891 20.708 21.2891Z" fill="#F1CD4B"/>
<path d="M29.3389 21.2891C27.9912 21.2891 26.9268 22.4453 26.9268 23.8838C26.9268 25.3223 28.0146 26.4785 29.3389 26.4785C30.6875 26.4785 31.751 25.3232 31.751 23.8838C31.751 22.4443 30.6641 21.2891 29.3389 21.2891Z" fill="#F1CD4B"/>
</svg>
