<svg width="50" height="50" viewBox="0 0 50 50" fill="none" xmlns="http://www.w3.org/2000/svg">
<path d="M25 0C11.1958 0 0 11.1958 0 25C0 38.8042 11.1958 50 25 50C38.8042 50 50 38.8042 50 25C50 11.1958 38.8104 0 25 0ZM12.3333 25.8396L12.4396 25.6708L18.9458 15.4958C18.9676 15.4624 18.998 15.4354 19.0338 15.4177C19.0696 15.4 19.1094 15.3922 19.1492 15.3952C19.1891 15.3982 19.2273 15.4118 19.2601 15.4346C19.2928 15.4575 19.3188 15.4887 19.3354 15.525C20.4187 17.9604 21.3604 20.9896 20.9188 22.875C20.7354 23.65 20.2208 24.7 19.6396 25.6708C19.565 25.8128 19.4837 25.9512 19.3958 26.0854C19.3748 26.1154 19.3466 26.1396 19.3139 26.156C19.2812 26.1723 19.2449 26.1803 19.2083 26.1792H12.5271C12.4872 26.1798 12.4479 26.1696 12.4134 26.1497C12.3788 26.1297 12.3503 26.1008 12.3309 26.066C12.3114 26.0312 12.3018 25.9917 12.3029 25.9519C12.3041 25.912 12.316 25.8732 12.3375 25.8396H12.3333ZM41.3208 29.3396C41.3214 29.3841 41.3088 29.4277 41.2847 29.4651C41.2606 29.5025 41.2261 29.532 41.1854 29.55C40.6792 29.7646 38.9562 30.5604 38.2396 31.5542C36.4104 34.1 35.0146 37.7417 31.8896 37.7417H18.8604C17.7603 37.74 16.6714 37.5216 15.6557 37.0989C14.6401 36.6763 13.7177 36.0576 12.9413 35.2782C12.1649 34.4989 11.5497 33.5742 11.1308 32.557C10.7119 31.5398 10.4975 30.4501 10.5 29.35V29.2C10.5 29.0792 10.6 28.9792 10.725 28.9792H17.9854C18.1313 28.9792 18.2354 29.1104 18.225 29.2542C18.1708 29.725 18.2604 30.2104 18.4854 30.65C18.9146 31.525 19.8104 32.0708 20.775 32.0708H24.3708V29.2646H20.8125C20.7708 29.2641 20.73 29.2523 20.6945 29.2304C20.6591 29.2085 20.6302 29.1773 20.6112 29.1403C20.5921 29.1032 20.5835 29.0616 20.5863 29.02C20.5891 28.9784 20.6032 28.9383 20.6271 28.9042L20.7583 28.7167C21.0917 28.2354 21.5729 27.4958 22.0521 26.65C22.3771 26.0792 22.6938 25.4708 22.9479 24.8583C22.9979 24.75 23.0375 24.6354 23.0833 24.525C23.1521 24.3292 23.2229 24.1458 23.2729 23.9646C23.322 23.8109 23.3671 23.656 23.4083 23.5C23.5271 22.9792 23.5771 22.4292 23.5771 21.8604C23.5771 21.6354 23.5688 21.4 23.5479 21.1792C23.5375 20.9354 23.5062 20.6896 23.4771 20.4458C23.4538 20.2277 23.4204 20.0108 23.3771 19.7958C23.321 19.4684 23.2529 19.1432 23.1729 18.8208L23.1437 18.6958C23.0812 18.4708 23.0271 18.2583 22.9562 18.0354C22.7579 17.3508 22.5299 16.6752 22.2729 16.0104C22.1834 15.7604 22.0847 15.5137 21.9771 15.2708C21.8271 14.9 21.6729 14.5646 21.5333 14.25C21.4639 14.1152 21.3986 13.9784 21.3375 13.8396C21.2697 13.6899 21.1982 13.5419 21.1229 13.3958C21.0729 13.2854 21.0125 13.1792 20.9729 13.0792L20.5333 12.2708C20.4729 12.1604 20.5729 12.025 20.6937 12.0604L23.4438 12.8042H23.4646L23.825 12.9083L24.225 13.0208L24.3708 13.0604V11.4292C24.3708 10.6396 25 10 25.7854 10C25.9709 9.9995 26.1545 10.0365 26.3253 10.1088C26.4961 10.1812 26.6505 10.2873 26.7792 10.4208C27.0452 10.6891 27.1948 11.0514 27.1958 11.4292V13.8542L27.4896 13.9354C27.5104 13.9458 27.5354 13.9562 27.5542 13.9708C27.625 14.0208 27.7292 14.1 27.8604 14.2C27.9646 14.2792 28.075 14.3792 28.2042 14.4854C28.6156 14.8206 29.0144 15.1708 29.4 15.5354C29.8458 15.95 30.3458 16.4354 30.825 16.975C30.9604 17.1292 31.0896 17.2792 31.225 17.4458C31.3542 17.6104 31.5 17.7708 31.6208 17.9292C31.7854 18.1458 31.9542 18.3708 32.1104 18.6042C32.1792 18.7146 32.2646 18.8292 32.3292 18.9396C32.5292 19.2354 32.7 19.5396 32.8646 19.8458C32.9354 19.9854 33.0042 20.1396 33.0646 20.2896C33.25 20.7 33.3958 21.1146 33.4854 21.5354C33.5151 21.6247 33.5353 21.7169 33.5458 21.8104V21.8312C33.575 21.95 33.5854 22.0812 33.5958 22.2146C33.6545 22.8304 33.5792 23.4515 33.375 24.0354C33.3104 24.2104 33.25 24.3896 33.1708 24.5646C33.0146 24.9188 32.8354 25.2792 32.6208 25.6104C32.55 25.7354 32.4646 25.8646 32.3854 25.9896C32.2958 26.1208 32.2 26.2458 32.1208 26.3646C32.0063 26.5223 31.8861 26.6759 31.7604 26.825C31.65 26.975 31.5396 27.125 31.4146 27.2604C31.2458 27.4646 31.0812 27.6562 30.9042 27.8396C30.8042 27.9604 30.6958 28.0854 30.5792 28.1937C30.4708 28.3187 30.3542 28.4292 30.2542 28.5292C30.0792 28.7042 29.9417 28.8354 29.8208 28.95L29.5354 29.2042C29.4957 29.244 29.4417 29.2665 29.3854 29.2667H27.1958V32.0708H29.95C30.5646 32.0708 31.15 31.8542 31.625 31.45C31.7854 31.3104 32.4896 30.7 33.325 29.7792C33.3522 29.7478 33.3887 29.7259 33.4292 29.7167L41.0333 27.5146C41.0667 27.5049 41.1019 27.5031 41.1361 27.5094C41.1703 27.5156 41.2026 27.5296 41.2304 27.5504C41.2583 27.5712 41.2809 27.5982 41.2966 27.6292C41.3123 27.6602 41.3206 27.6944 41.3208 27.7292V29.3396Z" fill="#F1CD4B"/>
</svg>
